<?xml version="1.0" encoding="UTF-8"?><svg id="Calque_1" xmlns="http://www.w3.org/2000/svg" xmlns:xlink="http://www.w3.org/1999/xlink" viewBox="0 0 730.5 555.12"><defs><style>.cls-1{fill:url(#Dégradé_sans_nom);fill-rule:evenodd;}.cls-1,.cls-2,.cls-3{stroke-width:0px;}.cls-2{fill:#fff;}.cls-3{fill:#f8485e;}</style><linearGradient id="Dégradé_sans_nom" x1="380.1" y1="-414.73" x2="190.22" y2="53.91" gradientTransform="translate(0 451.35)" gradientUnits="userSpaceOnUse"><stop offset="0" stop-color="#f8485e"/><stop offset="1" stop-color="#f8485e" stop-opacity="0"/></linearGradient></defs><path class="cls-1" d="m158.42,514.41c35.71,19.32,76.3,30.24,119.35,30.24,142.85,0,258.66-120.26,258.66-268.62S420.63,7.41,277.78,7.41c-75.61,0-143.64,33.69-190.93,87.4-5.72,6.49-3.49.04-8.57,7.09-.79,2.83-1.56,5.67-2.3,8.53,6.35-9.41,5.63-5.13,13.08-13.59C135.81,43.71,203.08,10.41,277.78,10.41c141.09,0,255.66,118.81,255.66,265.62s-114.57,265.62-255.66,265.62c-45.31,0-87.88-12.25-124.8-33.75,1.79,2.19,3.61,4.35,5.45,6.5h0Z"/><path class="cls-3" d="m53.01,76.56c-28.85-.04-52.27,23.31-52.32,52.16-.04,28.85,23.31,52.27,52.16,52.32,28.85.04,52.27-23.31,52.32-52.16v-.08c0-28.82-23.34-52.18-52.16-52.24m34.75,48.3h-20.01v36.48h-23.72c-12.84,0-24.42-7.8-24.42-24.42,0-12.37,6.46-24.42,24.42-24.42h5.52c1.42,4.07,2.45,8.26,3.07,12.53h-8.27c-7.41,0-11.58,4.02-11.58,11.98,0,7.48,3.94,11.98,11.58,11.98h10.56v-54.99h12.84v18.59h20.01v12.29-.02Z"/><path class="cls-2" d="m517.21,186.57c-3.08,0-5.59-2.51-5.59-5.59s2.51-5.59,5.59-5.59,5.59,2.51,5.59,5.59-2.51,5.59-5.59,5.59Z"/><path class="cls-3" d="m517.21,176.39c2.53,0,4.59,2.06,4.59,4.59s-2.06,4.59-4.59,4.59-4.59-2.06-4.59-4.59,2.06-4.59,4.59-4.59m0-2c-3.64,0-6.59,2.95-6.59,6.59s2.95,6.59,6.59,6.59,6.59-2.95,6.59-6.59-2.95-6.59-6.59-6.59h0Z"/><path class="cls-2" d="m532.39,247.15c-3.08,0-5.59-2.51-5.59-5.59s2.51-5.59,5.59-5.59,5.59,2.51,5.59,5.59-2.51,5.59-5.59,5.59Z"/><path class="cls-3" d="m532.39,236.97c2.53,0,4.59,2.06,4.59,4.59s-2.06,4.59-4.59,4.59-4.59-2.06-4.59-4.59,2.06-4.59,4.59-4.59m0-2c-3.64,0-6.59,2.95-6.59,6.59s2.95,6.59,6.59,6.59,6.59-2.95,6.59-6.59-2.95-6.59-6.59-6.59h0Z"/><path class="cls-2" d="m533.53,307.72c-3.08,0-5.59-2.51-5.59-5.59s2.51-5.59,5.59-5.59,5.59,2.51,5.59,5.59-2.51,5.59-5.59,5.59Z"/><path class="cls-3" d="m533.53,297.54c2.53,0,4.59,2.06,4.59,4.59s-2.06,4.59-4.59,4.59-4.59-2.06-4.59-4.59,2.06-4.59,4.59-4.59m0-2c-3.64,0-6.59,2.95-6.59,6.59s2.95,6.59,6.59,6.59,6.59-2.95,6.59-6.59-2.95-6.59-6.59-6.59h0Z"/><path class="cls-2" d="m521.8,368.3c-3.08,0-5.59-2.51-5.59-5.59s2.51-5.59,5.59-5.59,5.59,2.51,5.59,5.59-2.51,5.59-5.59,5.59Z"/><path class="cls-3" d="m521.8,358.12c2.53,0,4.59,2.06,4.59,4.59s-2.06,4.59-4.59,4.59-4.59-2.06-4.59-4.59,2.06-4.59,4.59-4.59m0-2c-3.64,0-6.59,2.95-6.59,6.59s2.95,6.59,6.59,6.59,6.59-2.95,6.59-6.59-2.95-6.59-6.59-6.59h0Z"/><path class="cls-2" d="m492.18,428.87c-3.08,0-5.59-2.51-5.59-5.59s2.51-5.59,5.59-5.59,5.59,2.51,5.59,5.59-2.51,5.59-5.59,5.59Z"/><path class="cls-3" d="m492.18,418.69c2.53,0,4.59,2.06,4.59,4.59s-2.06,4.59-4.59,4.59-4.59-2.06-4.59-4.59,2.06-4.59,4.59-4.59m0-2c-3.64,0-6.59,2.95-6.59,6.59s2.95,6.59,6.59,6.59,6.59-2.95,6.59-6.59-2.95-6.59-6.59-6.59h0Z"/><path class="cls-2" d="m439.58,489.45c-3.08,0-5.59-2.51-5.59-5.59s2.51-5.59,5.59-5.59,5.59,2.51,5.59,5.59-2.51,5.59-5.59,5.59Z"/><path class="cls-3" d="m439.58,479.27c2.53,0,4.59,2.06,4.59,4.59s-2.06,4.59-4.59,4.59-4.59-2.06-4.59-4.59,2.06-4.59,4.59-4.59m0-2c-3.64,0-6.59,2.95-6.59,6.59s2.95,6.59,6.59,6.59,6.59-2.95,6.59-6.59-2.95-6.59-6.59-6.59h0Z"/></svg>